<?xml version="1.0" encoding="UTF-8" standalone="no"?>
<svg
   width="349.65219"
   zoomAndPan="magnify"
   viewBox="0 0 262.23915 158.45261"
   height="211.27016"
   preserveAspectRatio="xMidYMid"
   version="1.0"
   id="svg236"
   sodipodi:docname="kiraxdesu_logo_1_v2.svg"
   inkscape:version="1.2.2 (b0a8486541, 2022-12-01)"
   xmlns:inkscape="http://www.inkscape.org/namespaces/inkscape"
   xmlns:sodipodi="http://sodipodi.sourceforge.net/DTD/sodipodi-0.dtd"
   xmlns="http://www.w3.org/2000/svg"
   xmlns:svg="http://www.w3.org/2000/svg">
  <sodipodi:namedview
     id="namedview238"
     pagecolor="#ffffff"
     bordercolor="#111111"
     borderopacity="1"
     inkscape:showpageshadow="0"
     inkscape:pageopacity="0"
     inkscape:pagecheckerboard="1"
     inkscape:deskcolor="#d1d1d1"
     showgrid="false"
     showguides="true"
     inkscape:zoom="1.55"
     inkscape:cx="262.90323"
     inkscape:cy="166.77419"
     inkscape:window-width="1920"
     inkscape:window-height="1011"
     inkscape:window-x="0"
     inkscape:window-y="0"
     inkscape:window-maximized="1"
     inkscape:current-layer="svg236">
    <sodipodi:guide
       position="-166.51209,127.32232"
       orientation="0,-1"
       id="guide441"
       inkscape:locked="false" />
    <sodipodi:guide
       position="-130.47315,201.98966"
       orientation="0,-1"
       id="guide443"
       inkscape:locked="false" />
    <sodipodi:guide
       position="-181.18321,69.586692"
       orientation="0,-1"
       id="guide445"
       inkscape:locked="false" />
    <sodipodi:guide
       position="-116.18951,15.548132"
       orientation="0,-1"
       id="guide447"
       inkscape:locked="false" />
    <sodipodi:guide
       position="135.4196,425.814"
       orientation="1,0"
       id="guide449"
       inkscape:locked="false" />
    <sodipodi:guide
       position="-135.04552,52.419292"
       orientation="0,-1"
       id="guide714"
       inkscape:locked="false" />
  </sodipodi:namedview>
  <defs
     id="defs40">
    <g
       id="g2" />
    <clipPath
       id="859fc3262b">
      <path
         d="m 53.28125,148.22656 h 43.5 v 43.5 h -43.5 z m 0,0"
         clip-rule="nonzero"
         id="path4" />
    </clipPath>
    <clipPath
       id="c18d92659b">
      <path
         d="m 174,106 h 27 v 27.50391 h -27 z m 0,0"
         clip-rule="nonzero"
         id="path7" />
    </clipPath>
    <clipPath
       id="9c0acc64d5">
      <path
         d="m 174,16.503906 h 27 V 44 h -27 z m 0,0"
         clip-rule="nonzero"
         id="path10" />
    </clipPath>
    <clipPath
       id="bebbbe4120">
      <path
         d="m 200,48 h 27.19531 V 76 H 200 Z m 0,0"
         clip-rule="nonzero"
         id="path13" />
    </clipPath>
    <clipPath
       id="3749fd6ce4">
      <path
         d="M 147.69531,40 H 175 v 28 h -27.30469 z m 0,0"
         clip-rule="nonzero"
         id="path16" />
    </clipPath>
    <clipPath
       id="ccb0e01b7d">
      <path
         d="m 296,197.95312 h 25.63672 V 223 H 296 Z m 0,0"
         clip-rule="nonzero"
         id="path19" />
    </clipPath>
    <clipPath
       id="75e5a809f3">
      <path
         d="M 275.88672,218 H 301 v 25.70312 h -25.11328 z m 0,0"
         clip-rule="nonzero"
         id="path22" />
    </clipPath>
    <clipPath
       id="d622b48ebc">
      <path
         d="M 71,197.95312 H 96.707031 V 223 H 71 Z m 0,0"
         clip-rule="nonzero"
         id="path25" />
    </clipPath>
    <clipPath
       id="d11a1dcb82">
      <path
         d="m 51,218 h 25 v 25.70312 H 51 Z m 0,0"
         clip-rule="nonzero"
         id="path28" />
    </clipPath>
    <clipPath
       id="64fe49cb36">
      <path
         d="m 93,225 h 3.707031 v 5 H 93 Z m 0,0"
         clip-rule="nonzero"
         id="path31" />
    </clipPath>
    <clipPath
       id="e587e20fb3">
      <path
         d="m 282.26562,153.56641 h 33 v 33 h -33 z m 0,0"
         clip-rule="nonzero"
         id="path34" />
    </clipPath>
    <clipPath
       id="d3260f3da7">
      <path
         d="m 114.86719,75.035156 h 27.75 v 46.500004 h -27.75 z m 0,0"
         clip-rule="nonzero"
         id="path37" />
    </clipPath>
    <clipPath
       id="859fc3262b-3">
      <path
         d="m 53.28125,148.22656 h 43.5 v 43.5 h -43.5 z m 0,0"
         clip-rule="nonzero"
         id="path4-6" />
    </clipPath>
    <clipPath
       id="859fc3262b-3-3">
      <path
         d="m 53.28125,148.22656 h 43.5 v 43.5 h -43.5 z m 0,0"
         clip-rule="nonzero"
         id="path4-6-5" />
    </clipPath>
    <clipPath
       id="859fc3262b-3-9">
      <path
         d="m 53.28125,148.22656 h 43.5 v 43.5 h -43.5 z m 0,0"
         clip-rule="nonzero"
         id="path4-6-1" />
    </clipPath>
    <clipPath
       id="859fc3262b-3-3-0">
      <path
         d="m 53.28125,148.22656 h 43.5 v 43.5 h -43.5 z m 0,0"
         clip-rule="nonzero"
         id="path4-6-5-6" />
    </clipPath>
    <clipPath
       id="859fc3262b-3-3-1">
      <path
         d="m 53.28125,148.22656 h 43.5 v 43.5 h -43.5 z m 0,0"
         clip-rule="nonzero"
         id="path4-6-5-8" />
    </clipPath>
  </defs>
  <g
     clip-path="url(#c18d92659b)"
     id="g50"
     style="fill:#1a1a1a"
     transform="matrix(0.77339726,0,0,0.74888005,-35.880026,-20.581676)">
    <path
       fill="#ffffff"
       d="m 187.44531,117.55078 c -1.46094,0 -2.64844,1.1875 -2.64844,2.65625 0,1.46875 1.1875,2.66016 2.64844,2.66016 1.46485,0 2.65235,-1.19141 2.65235,-2.66016 0,-1.46875 -1.1875,-2.65625 -2.65235,-2.65625 z m -13.25,2.65625 c 0,-7.33984 5.9336,-13.29297 13.25,-13.29297 7.32031,0 13.25,5.95313 13.25,13.29297 0,7.34375 -5.92969,13.29688 -13.25,13.29688 -7.3164,0 -13.25,-5.95313 -13.25,-13.29688 z m 0,0"
       fill-opacity="1"
       fill-rule="evenodd"
       id="path48"
       style="fill:#1a1a1a" />
  </g>
  <g
     clip-path="url(#9c0acc64d5)"
     id="g54"
     style="fill:#000000"
     transform="matrix(0.72225657,0,0,0.73832455,-25.75137,-7.9907996)">
    <path
       fill="#ffffff"
       d="m 187.44531,27.140625 c -1.46094,0 -2.64844,1.191406 -2.64844,2.660156 0,1.46875 1.1875,2.65625 2.64844,2.65625 1.46485,0 2.65235,-1.1875 2.65235,-2.65625 0,-1.46875 -1.1875,-2.660156 -2.65235,-2.660156 z m -13.25,2.660156 c 0,-7.34375 5.9336,-13.296875 13.25,-13.296875 7.32031,0 13.25,5.953125 13.25,13.296875 0,7.339844 -5.92969,13.292969 -13.25,13.292969 -7.3164,0 -13.25,-5.953125 -13.25,-13.292969 z m 0,0"
       fill-opacity="1"
       fill-rule="evenodd"
       id="path52"
       style="fill:#000000" />
  </g>
  <g
     clip-path="url(#bebbbe4120)"
     id="g58"
     style="fill:#1a1a1a"
     transform="matrix(0.7431365,0,0,0.70298882,-29.246755,-21.89215)">
    <path
       fill="#ffffff"
       d="m 213.94531,59.050781 c -1.46094,0 -2.64844,1.1875 -2.64844,2.65625 0,1.46875 1.1875,2.660157 2.64844,2.660157 1.46485,0 2.65235,-1.191407 2.65235,-2.660157 0,-1.46875 -1.1875,-2.65625 -2.65235,-2.65625 z m -13.25,2.65625 c 0,-7.339843 5.9336,-13.292969 13.25,-13.292969 7.32031,0 13.25,5.953126 13.25,13.292969 0,7.34375 -5.92969,13.296875 -13.25,13.296875 -7.3164,0 -13.25,-5.953125 -13.25,-13.296875 z m 0,0"
       fill-opacity="1"
       fill-rule="evenodd"
       id="path56"
       style="fill:#1a1a1a" />
  </g>
  <path
     fill="#ffffff"
     d="m 105.29972,22.840319 h 8.20796 v 40.92257 h -8.20796 z m 0,0"
     fill-opacity="1"
     fill-rule="evenodd"
     id="path60"
     style="fill:#000000;stroke-width:0.652458" />
  <path
     fill="#ffffff"
     d="m 133.07418,26.934869 v 8.57197 c 0,7.10448 -25.98965,32.27192 -24.63523,26.51279 l 3.20982,-13.64852 v -8.57512 h 10.71402 c 1.97121,0 3.57134,-1.92099 3.57134,-4.28915 v -8.57197 z"
     fill-opacity="1"
     fill-rule="evenodd"
     id="path62"
     style="fill:#000000;stroke-width:0.736991"
     sodipodi:nodetypes="cssccsscc" />
  <g
     clip-path="url(#3749fd6ce4)"
     id="g66"
     style="fill:#1a1a1a"
     transform="matrix(0.66627534,0,0,0.65714787,-18.820745,-7.6073056)">
    <path
       fill="#ffffff"
       d="m 160.94922,51.070312 c 1.46094,0 2.64844,1.191407 2.64844,2.660157 0,1.46875 -1.1875,2.660156 -2.64844,2.660156 -1.46485,0 -2.65235,-1.191406 -2.65235,-2.660156 0,-1.46875 1.1875,-2.660157 2.65235,-2.660157 z m 13.24609,2.660157 c 0,-7.34375 -5.92969,-13.292969 -13.24609,-13.292969 -7.32031,0 -13.25,5.949219 -13.25,13.292969 0,7.34375 5.92969,13.296875 13.25,13.296875 7.3164,0 13.24609,-5.953125 13.24609,-13.296875 z m 0,0"
       fill-opacity="1"
       fill-rule="evenodd"
       id="path64"
       style="fill:#1a1a1a" />
  </g>
  <path
     fill="#ffffff"
     d="m 85.695867,34.483329 v 7.47528 c 0,6.19326 4.323359,11.2143 9.657559,11.2143 l 13.433234,-0.46912 1.80965,-5.97972 -3.18749,-15.02646 c -0.3688,-1.73859 -15.275364,12.32542 -15.275364,10.261 v -7.47528 z"
     fill-opacity="1"
     fill-rule="evenodd"
     id="path68"
     style="fill:#000000;stroke-width:0.653381"
     sodipodi:nodetypes="cssccsscc" />
  <path
     fill="#ffffff"
     d="m 68.708957,148.20039 c 0.0898,0.0156 0.18359,0.0156 0.27344,0 0.6875,-0.27344 1.39062,-0.50391 2.10156,-0.69531 0.11328,-0.0195 0.21875,-0.0586 0.3125,-0.125 0.0937,-0.0625 0.17187,-0.14453 0.23047,-0.24219 0.0586,-0.0937 0.0977,-0.19922 0.10937,-0.3125 0.0156,-0.11328 0.004,-0.22656 -0.0312,-0.33594 -0.0469,-0.17187 -0.14062,-0.3125 -0.28125,-0.41797 -0.14453,-0.10937 -0.30468,-0.16406 -0.48047,-0.16796 h -0.20312 c -0.76563,0.20703 -1.51953,0.45312 -2.25781,0.74218 -0.17578,0.0703 -0.30469,0.1875 -0.39453,0.35157 -0.0898,0.16796 -0.11719,0.33984 -0.082,0.52343 0.0352,0.1836 0.125,0.33594 0.26563,0.45703 0.14453,0.1211 0.30859,0.1836 0.49609,0.1836 z m 0,0"
     fill-opacity="1"
     fill-rule="nonzero"
     id="path106"
     style="fill:#1a1a1a" />
  <path
     fill="#ffffff"
     d="m 62.759737,151.64961 c 0.18359,0 0.34766,-0.0586 0.48828,-0.17969 0.57422,-0.45312 1.19531,-0.89453 1.79297,-1.30078 0.18359,-0.11719 0.29688,-0.28125 0.34375,-0.49219 0.0469,-0.21484 0.0117,-0.41015 -0.10547,-0.59375 -0.15625,-0.24218 -0.3789,-0.36328 -0.66797,-0.35937 -0.15625,0 -0.30078,0.043 -0.42968,0.13281 -0.65625,0.42969 -1.30469,0.89453 -1.92579,1.39844 -0.16796,0.13672 -0.26171,0.3125 -0.28125,0.53125 -0.0234,0.21875 0.0352,0.41015 0.17579,0.57812 0.15625,0.19141 0.35937,0.28907 0.60937,0.28516 z m 0,0"
     fill-opacity="1"
     fill-rule="nonzero"
     id="path122"
     style="fill:#1a1a1a" />
  <g
     fill="#ffffff"
     fill-opacity="1"
     id="g162"
     style="fill:#000000"
     transform="matrix(1.287968,0,0,0.9291768,24.669737,-226.79414)">
    <g
       transform="translate(3.894056,329.71937)"
       id="g160"
       style="fill:#000000">
      <g
         id="g158"
         style="fill:#000000">
        <path
           d="M 8.0336873,0.21863507 -9.6901352,-80.491075 21.25349,-81.254859 20.300887,-46.518172 26.546875,-79.15625 h 15.9375 L 32.363223,-28.80677 44.328125,0 h -16.40625 l -8.65625,-38.34375 V 0 Z"
           id="path156"
           style="fill:#000000"
           sodipodi:nodetypes="cccccccccccc" />
      </g>
    </g>
  </g>
  <g
     clip-path="url(#859fc3262b-3-3-0)"
     id="g46-7-6-2"
     transform="matrix(0.65915378,0,0,0.68792528,-10.36586,-95.203596)"
     style="fill:#ffffff">
    <path
       fill="#ffffff"
       d="m 86.532286,150.26717 c -5.105469,0.52734 -17.669817,-7.98243 -21.251848,-4.39649 -3.441407,3.4375 -11.124188,16.42229 -11.839032,21.44963 -0.144531,1 -0.144531,4.34766 0,5.35156 0.722656,5.03516 2.337051,16.15474 5.778458,19.60395 3.445312,3.4375 26.515347,-16.90073 31.550504,-16.18198 1,0.14453 -22.0642,16.31465 -21.060294,16.17012 3.496094,-0.5 14.465707,-2.27568 17.293832,-4.12724 2.3125,-1.51172 2.022364,-1.87768 3.534083,-4.19018 1.851563,-2.83594 5.579199,-7.77857 6.079199,-11.27467 0.144531,-1.0039 0.144531,-4.35156 0,-5.35156 -0.71875,-5.03515 -2.785157,-9.24219 -6.222657,-12.6875 -3.363281,-3.36328 -28.939132,8.50625 -33.775069,7.75625 -1.070313,-0.16015 30.998761,-12.24299 29.912824,-12.12189 z m -8.825255,12.73674 c -0.03516,0.13671 -0.800781,3.3125 -1.707031,7.07421 -0.910156,3.76563 -1.675781,6.90625 -1.699219,6.98438 -0.04297,0.13281 -0.171875,0.15234 -1.019531,0.15234 h -0.984375 l 0.05859,-0.28125 c 0.03516,-0.14453 0.804687,-3.36328 1.707031,-7.14453 0.90625,-3.78515 1.648438,-6.90234 1.648438,-6.94531 0,-0.0352 0.457031,-0.0664 1.027343,-0.0664 h 1.027344 z m -6.328125,3.14453 v 1.33984 l -3.125,1.17969 c -1.714844,0.65625 -3.210937,1.23437 -3.328125,1.29297 l -0.214843,0.10937 0.253906,0.0937 c 0.144531,0.0508 1.632812,0.63672 3.3125,1.3086 l 3.058594,1.21484 0.02734,1.32422 c 0.0078,0.73828 -0.01172,1.33203 -0.04297,1.33203 -0.04297,0 -2.199218,-0.92578 -4.800781,-2.05469 l -4.738281,-2.05469 v -2.32031 l 1.300781,-0.5664 c 6.714844,-2.92188 8.101563,-3.51563 8.195313,-3.52344 0.07422,-0.0117 0.101562,0.3125 0.101562,1.32422 z m 12.253906,0.77343 4.644532,2.00391 v 2.30859 l -3.242188,1.41797 c -1.792968,0.77344 -3.949218,1.71485 -4.808594,2.08985 l -1.546874,0.67187 0.01953,-1.35937 0.02344,-1.36719 3.226563,-1.26563 c 1.777343,-0.69531 3.253906,-1.29296 3.289062,-1.32421 0.03516,-0.0352 -1.417969,-0.63672 -3.226562,-1.33594 l -3.289063,-1.28125 -0.02344,-1.33985 c -0.01563,-1.25781 -0.0078,-1.34375 0.128906,-1.29296 0.08203,0.0352 2.242187,0.96875 4.804688,2.07421 z"
       fill-opacity="1"
       fill-rule="nonzero"
       id="path44-5-2-6"
       style="fill:#ffffff"
       sodipodi:nodetypes="cccccccccccccccccscccsscccccccccccscccccscccccccccccccccc" />
  </g>
  <g
     fill="#ffffff"
     fill-opacity="1"
     id="g178"
     style="fill:#000000"
     transform="matrix(1.191119,0,0,0.95157857,54.163436,-233.96043)">
    <g
       transform="translate(68.303128,329.71937)"
       id="g176"
       style="fill:#000000">
      <g
         id="g174"
         style="fill:#000000">
        <path
           d="m 11.096405,-79.798119 3.273628,0.338491 c 1.418381,1.264745 18.307657,-1.412272 22.839679,0.969064 2.125,1.75 3.153569,6.170252 3.884038,9.334314 0.738281,3.15625 1.109375,7.195312 1.109375,12.109375 0,4.492187 -0.585937,7.996094 -1.75,10.515625 -1.167969,2.511719 -3.920169,2.958318 -6.802981,3.946599 2.394531,0.492188 4.853762,2.990901 5.927981,4.897151 1.070313,1.90625 1.609375,4.484375 1.609375,7.734375 L 41.015625,0 H 22.712613 l -3.735366,-28.694822 c -0.283562,-2.178302 10.680496,59.204475 5.257128,-6.508303 -12.535082,-5.076866 -9.662584,33.6631859 -11.943834,33.6631859 l 0.74393,1.03290503 -25.412866,-0.23736494 z m 12.309845,29.938744 c 2.206227,-0.07455 3.3125,-2.394531 3.3125,-7.1875 0,-2.082031 -0.09375,-3.644531 -0.28125,-4.6875 -0.179688,-1.050781 -0.511719,-1.773437 -1,-2.171875 -0.492188,-0.40625 -1.199219,-0.609375 -2.125,-0.609375 l -10.920355,-0.619396 -0.0011,15.647846 z"
           id="path172"
           style="fill:#000000"
           sodipodi:nodetypes="ccccsccccccscccccssccsccs" />
      </g>
    </g>
  </g>
  <g
     fill="#ffffff"
     fill-opacity="1"
     id="g186"
     style="fill:#000000"
     transform="matrix(1.2277997,0,0,0.94857167,45.1927,-233.42179)">
    <g
       transform="translate(112.25611,329.71937)"
       id="g184"
       style="fill:#000000">
      <g
         id="g182"
         style="fill:#000000">
        <path
           d="M 1.375,0 9.03125,-79.15625 61.376702,-79.777609 60.940561,0.20993784 39.857376,-0.15216971 38.891689,-22.179391 16.81884,-22.879653 16.765625,0 Z m 15.868653,-34.243617 24.120933,0.311384 -1.068185,10.351937 -21.356894,-38.524297 z"
           id="path180"
           style="fill:#000000"
           sodipodi:nodetypes="cccccccccccccc" />
      </g>
    </g>
  </g>
  <g
     fill="#ffffff"
     fill-opacity="1"
     id="g194"
     style="fill:#000000"
     transform="matrix(1.2058627,0,0,0.92790396,-159.30153,-151.63589)">
    <g
       transform="translate(156.94624,329.71937)"
       id="g192"
       style="fill:#000000">
      <g
         id="g190"
         style="fill:#000000">
        <path
           d="M -12.091527,-0.21605426 6.1617321,-40.972803 -11.720314,-80.32451 18.4375,-79.25 20.94998,-47.107873 26.171875,-79.25 H 41.75 L 38.983976,-42.325303 43.40625,0 H 27.375 L 22.106888,-15.889603 17.328125,0 Z"
           id="path188"
           style="fill:#000000"
           sodipodi:nodetypes="ccccccccccccc" />
      </g>
    </g>
  </g>
  <path
     fill="#ffffff"
     d="m 56.62766,124.7279 v -4.16797 h 6.29688 c 0.21875,0.004 0.40625,-0.0742 0.55859,-0.23047 0.15625,-0.15234 0.23437,-0.33984 0.23047,-0.55859 v -4.98048 c 0.004,-0.21875 -0.0742,-0.40625 -0.23047,-0.5625 -0.15234,-0.15625 -0.33984,-0.23046 -0.55859,-0.22656 H 55.8386 c -0.21485,0 -0.40235,0.0781 -0.55469,0.23047 -0.15625,0.15234 -0.23047,0.33984 -0.23047,0.55859 v 9.90235 c 0,0.21485 0.0742,0.40235 0.23047,0.55469 0.15234,0.15625 0.33984,0.23437 0.55469,0.23437 0.21875,0 0.40625,-0.0781 0.55859,-0.23437 0.15625,-0.15234 0.23047,-0.33984 0.23047,-0.55469 z m 5.51953,-9.11329 v 3.36719 h -5.51953 v -3.36719 z m 0,0"
     fill-opacity="1"
     fill-rule="nonzero"
     id="path108-2"
     style="fill:#ffffff" />
  <path
     fill="#ffffff"
     d="m 51.80344,124.98962 c 0.0547,0.16015 0.14844,0.28515 0.28516,0.38281 0.13672,0.0977 0.28906,0.14453 0.45312,0.14453 0.0899,0.0117 0.17578,0.0117 0.26563,0 0.19922,-0.0781 0.34765,-0.21094 0.4414,-0.40625 0.0898,-0.19531 0.10547,-0.39453 0.0352,-0.59766 l -3.58203,-9.90234 c -0.0547,-0.16016 -0.14844,-0.28516 -0.28516,-0.38282 -0.13672,-0.0977 -0.28906,-0.14453 -0.45703,-0.14453 -0.16797,0 -0.32031,0.0469 -0.45312,0.14453 -0.13672,0.0977 -0.23438,0.22266 -0.28516,0.38282 l -3.58594,9.90234 c -0.0742,0.20313 -0.0664,0.40235 0.0234,0.59766 0.0898,0.19922 0.23828,0.33203 0.44141,0.40625 0.0937,0.0117 0.18359,0.0117 0.27734,0 0.16406,0 0.31641,-0.0508 0.45313,-0.14844 0.13671,-0.0937 0.23046,-0.22265 0.28515,-0.3789 l 0.9336,-2.62891 h 3.80859 z m -4.10937,-4.22657 1.30078,-3.58594 1.30469,3.58594 z m 0,0"
     fill-opacity="1"
     fill-rule="nonzero"
     id="path126-0"
     style="fill:#ffffff" />
  <path
     fill="#ffffff"
     d="m 66.23313,125.5404 c 0.21484,-0.004 0.40234,-0.082 0.55469,-0.23438 0.15234,-0.15234 0.23047,-0.33984 0.23437,-0.55468 v -9.96095 c 0,-0.21875 -0.0781,-0.40625 -0.23047,-0.55859 -0.15625,-0.15234 -0.33984,-0.23047 -0.55859,-0.23047 -0.21875,0 -0.40234,0.0781 -0.55859,0.23047 -0.15235,0.15234 -0.23047,0.33984 -0.23047,0.55859 v 9.90235 c -0.0117,0.22656 0.0586,0.42578 0.21484,0.58985 0.15234,0.16796 0.34375,0.2539 0.57422,0.25781 z m 0,0"
     fill-opacity="1"
     fill-rule="nonzero"
     id="path128-2"
     style="fill:#ffffff" />
  <path
     fill="#ffffff"
     d="m 63.47532,126.73571 c -0.21485,-0.004 -0.39844,0.0664 -0.55078,0.21484 -0.46875,0.46094 -0.97657,0.8711 -1.52344,1.23047 -0.54688,0.36328 -1.125,0.66797 -1.73047,0.91797 -0.60547,0.2461 -1.23047,0.4336 -1.875,0.5625 -0.64453,0.125 -1.29297,0.19141 -1.94922,0.19141 -0.65625,0 -1.30469,-0.0664 -1.94922,-0.19141 -0.64453,-0.1289 -1.26953,-0.3164 -1.875,-0.5625 -0.60547,-0.25 -1.18359,-0.55469 -1.73047,-0.91797 -0.54687,-0.35937 -1.05468,-0.76953 -1.52343,-1.23047 -0.15235,-0.14843 -0.33594,-0.22265 -0.54688,-0.22656 -0.22266,0 -0.41016,0.082 -0.5625,0.23828 -0.15625,0.15235 -0.23437,0.33594 -0.23437,0.55469 0,0.21875 0.0781,0.40234 0.23437,0.55469 0.53906,0.53125 1.125,1.00781 1.75781,1.42578 0.62891,0.41797 1.29688,0.77344 2,1.05859 0.69922,0.28907 1.42188,0.50782 2.16407,0.65235 0.74609,0.14843 1.49609,0.22265 2.2539,0.22265 0.75781,0 1.50781,-0.0742 2.25391,-0.22265 0.74219,-0.14453 1.46484,-0.36328 2.16406,-0.65235 0.70313,-0.28515 1.37109,-0.64062 2,-1.05859 0.63281,-0.41797 1.21875,-0.89453 1.75781,-1.42578 0.25391,-0.24219 9.45284,2.65747 9.32003,2.32935 -0.12891,-0.32422 -9.50753,-3.6692 -9.85518,-3.66529 z"
     fill-opacity="1"
     fill-rule="nonzero"
     id="path142-3"
     style="fill:#ffffff"
     sodipodi:nodetypes="cccccsccccccsccccscccccc" />
  <g
     fill="#ffffff"
     fill-opacity="1"
     id="g202"
     style="fill:#000000"
     transform="matrix(0.92472722,0,0,0.92434035,-102.25824,-150.48215)">
    <g
       transform="translate(201.54422,329.71937)"
       id="g200"
       style="fill:#000000">
      <g
         id="g198"
         style="fill:#000000">
        <path
           d="M -2.1945207,-80.172728 25.34375,-79.15625 c 5.652404,0.208639 9.894531,1.570312 12.71875,4.703125 2.820312,3.125 4.265625,7.761719 4.328125,13.90625 L 42.578125,-23.5 c 0.0625,7.804688 -1.292969,13.671875 -4.0625,17.609375 C 35.753906,-1.960938 31.179688,0 24.796875,0 L 7.129173,-0.28773703 Z M 22.203125,-14 c 2.894531,0 4.34375,-1.414062 4.34375,-4.25 v -40.828125 c 0,-1.78125 -0.140625,-3.113281 -0.421875,-4 -0.273438,-0.894531 -0.777344,-1.492187 -1.515625,-1.796875 -0.742187,-0.3125 -1.875,-0.46875 -3.40625,-0.46875 L 15.396414,-66.360228 19.4375,-14 Z"
           id="path196"
           style="fill:#000000"
           sodipodi:nodetypes="csccccsccsssccsccs" />
      </g>
    </g>
  </g>
  <g
     fill="#ffffff"
     fill-opacity="1"
     id="g210"
     style="fill:#000000"
     transform="matrix(1.1557152,0,0,0.92244928,-162.7214,-149.36296)">
    <g
       transform="translate(246.97149,329.71937)"
       id="g208"
       style="fill:#000000">
      <g
         id="g206"
         style="fill:#000000">
        <path
           d="m 3.5,0 -3.32592655,-81.833778 35.02905155,2.677528 -0.855767,17.623775 -18.981533,-5.218862 0.143399,19.306944 17.667859,-0.756314 -0.345778,20.707248 -15.292527,-1.766184 -0.896242,16.404556 19.576213,-2.535538 V 0 Z"
           id="path204"
           style="fill:#000000"
           sodipodi:nodetypes="ccccccccccccc" />
      </g>
    </g>
  </g>
  <g
     fill="#ffffff"
     fill-opacity="1"
     id="g218"
     style="fill:#000000"
     transform="matrix(0.91983696,0,0,0.91549046,-99.408852,-147.60654)">
    <g
       transform="translate(284.93507,329.71937)"
       id="g216"
       style="fill:#000000">
      <g
         id="g214"
         style="fill:#000000">
        <path
           d="m 22.296875,0.734375 c -7.1875,0 -12.382813,-1.78125 -15.578125,-5.34375 -3.1875,-3.5625 -9.8339079,-13.708182 -7.9720242,-21.414046 L 2.9269887,-43.32447 17.515625,-29.578125 v 9.859375 c 0,3.929688 1.871428,21.444316 4.383147,21.444316 1.414062,0 1.780916,-15.963847 2.335603,-16.788066 0.550781,-0.832031 0.828125,-2.234375 0.828125,-4.203125 0,-2.570313 -0.308594,-4.703125 -0.921875,-6.390625 -0.617187,-1.695312 -1.402344,-3.113281 -2.359375,-4.25 -0.949219,-1.132812 -2.648438,-2.898438 -5.09375,-5.296875 l -6.828125,-6.8125 C 4.578125,-47.179688 -2.8100354,-55.097272 1.9375,-59.171875 18.711016,-73.567855 -0.51181075,-65.068183 2.5936583,-68.599433 5.6952203,-72.138495 14.226562,-79.90625 20.1875,-79.90625 c 7.125,0 12.25,1.890625 15.375,5.671875 3.132812,3.78125 3.177482,26.228118 3.177482,34.278899 l -14.599357,-16.528899 -0.09375,-5.4375 c 0,-1.050781 -0.292969,-1.882813 -0.875,-2.5 -0.585937,-0.613281 -2.672713,-15.355829 -3.711776,-15.355829 -1.230469,0 -0.878068,14.773798 -1.491349,15.449579 -0.617188,0.679687 -0.921875,1.601563 -0.921875,2.765625 0,2.585938 1.472656,5.257812 4.421875,8.015625 l 9.21875,8.84375 c 2.144531,2.09375 3.925781,4.078125 5.34375,5.953125 1.414062,1.875 2.550781,4.089844 3.40625,6.640625 0.863281,2.542969 1.296875,5.570313 1.296875,9.078125 0,7.804688 -1.433594,13.714844 -4.296875,17.734375 -2.855469,4.023437 -7.570312,6.03125 -14.140625,6.03125 z"
           id="path212"
           style="fill:#000000"
           sodipodi:nodetypes="scsccsscsccccscscccccscsccccscs" />
      </g>
    </g>
  </g>
  <g
     fill="#ffffff"
     fill-opacity="1"
     id="g226"
     transform="matrix(1,0,0,0.91446289,-130.51407,-148.0328)"
     style="fill:#000000">
    <g
       transform="translate(327.41373,329.71937)"
       id="g224"
       style="fill:#000000">
      <g
         id="g222"
         style="fill:#000000">
        <path
           d="m 11.385502,1.4636798 c -6.5117192,0 -0.331977,-40.4004418 3.054232,-48.1612338 -8.3843964,0.847636 -6.8829067,63.45501 -8.3505779,42.9641282 L 0.68695297,-79.15625 23.908233,-79.321403 17.96875,-21.84375 c -0.259112,2.507479 0.242188,4.492188 0.734375,5.90625 0.488281,1.40625 1.535156,2.109375 3.140625,2.109375 1.59375,0 2.632812,-0.6875 3.125,-2.0625 0.5,-1.382813 0.75,-3.367187 0.75,-5.953125 l 2.571459,-58.565033 32.881628,0.919304 -13.37052,62.725029 C 46.148606,-9.0110995 8.786213,-74.763417 40.213891,-16.017061 53.439644,3.8130664 17.893314,1.4636798 11.385502,1.4636798 Z"
           id="path220"
           style="fill:#000000"
           sodipodi:nodetypes="scsccscscsccscs" />
      </g>
    </g>
  </g>
  <g
     clip-path="url(#859fc3262b-3-9)"
     id="g46-7-2"
     transform="matrix(0.53225532,0,0,0.51415446,-7.5420515,-47.745252)"
     style="fill:#ececec" />
  <path
     fill="#ffffff"
     d="m 108.91172,212.62817 c -0.004,-0.21094 -0.0469,-0.41797 -0.1289,-0.61329 -0.082,-0.19921 -0.19922,-0.37109 -0.34766,-0.52343 -0.15234,-0.14844 -0.32422,-0.26563 -0.52344,-0.34766 -0.19531,-0.0859 -0.40234,-0.125 -0.61328,-0.12891 h -3.46484 c -0.33594,-1.26171 -0.83594,-2.45312 -1.49219,-3.58203 -0.0156,-0.0234 -0.0156,-0.0469 0,-0.0703 l 2.44922,-2.39062 c 0.14844,-0.15235 0.26562,-0.32422 0.34766,-0.52344 0.082,-0.19922 0.125,-0.40235 0.125,-0.61719 0,-0.21484 -0.043,-0.41797 -0.125,-0.61719 -0.082,-0.19922 -0.19922,-0.37109 -0.34766,-0.52343 l -3.44141,-3.51172 c -0.32812,-0.33594 -0.72656,-0.4961 -1.19531,-0.47657 -0.464844,-0.0156 -0.863284,0.14454 -1.195314,0.47657 l -2.38672,2.38672 h -0.0742 c -1.13281,-0.64454 -2.32422,-1.14063 -3.58203,-1.49219 v -3.45314 c 0,-0.21484 -0.0391,-0.42187 -0.1211,-0.625 -0.082,-0.19922 -0.20312,-0.375 -0.35547,-0.53125 -0.15234,-0.15234 -0.33203,-0.26953 -0.53125,-0.34765 -0.20312,-0.082 -0.41015,-0.1211 -0.6289,-0.11719 h -4.777344 c -0.214844,0 -0.421875,0.043 -0.617188,0.125 -0.199218,0.082 -0.375,0.20312 -0.523437,0.35156 -0.152344,0.15235 -0.269531,0.32813 -0.351563,0.52735 -0.08203,0.19921 -0.121093,0.40625 -0.121093,0.61718 v 3.45314 c -1.257813,0.34765 -2.453125,0.84765 -3.582031,1.49219 h -0.15625 l -2.390626,-2.38672 c -0.324218,-0.33594 -0.722656,-0.4961 -1.195312,-0.47657 -0.441406,0 -0.820312,0.15235 -1.132812,0.46485 l -3.417969,3.40234 c -0.148438,0.15235 -0.265625,0.32813 -0.34375,0.52735 -0.08203,0.19531 -0.121094,0.40234 -0.121094,0.61328 0,0.21484 0.03906,0.42187 0.121094,0.61718 0.07813,0.19922 0.195312,0.375 0.34375,0.52344 l 2.449219,2.39063 c 0,0 0,0 0,0.0703 -0.648438,1.13281 -1.144532,2.32812 -1.492188,3.58594 h -3.5 c -0.226562,0 -0.441406,0.043 -0.648438,0.13281 -0.207031,0.0898 -0.386718,0.21484 -0.539062,0.37891 -0.15625,0.16406 -0.269531,0.35156 -0.34375,0.5664 -0.07813,0.21094 -0.109375,0.42969 -0.09375,0.65235 v 4.77734 c 0,0.21484 0.04297,0.42187 0.125,0.62109 0.08203,0.19922 0.199219,0.375 0.351562,0.52344 0.152344,0.15234 0.328126,0.26953 0.527344,0.35156 0.199219,0.0781 0.40625,0.1211 0.621094,0.11719 h 3.453125 c 0.347656,1.25781 0.847656,2.45313 1.492187,3.58594 0,0 0,0 0,0.0703 l -2.449218,2.39063 c -0.148438,0.15234 -0.261719,0.32812 -0.34375,0.52734 -0.07813,0.19922 -0.121094,0.40234 -0.121094,0.61719 0,0.21484 0.04297,0.42187 0.121094,0.61718 0.08203,0.19922 0.195312,0.375 0.34375,0.53125 l 3.40625,3.39063 c 0.3125,0.3125 0.691406,0.46484 1.132812,0.45312 0.464844,0.0234 0.863282,-0.1289 1.195313,-0.45312 l 2.390625,-2.44922 h 0.07031 c 1.128906,0.65625 2.324219,1.15625 3.582032,1.49219 v 3.46484 c 0.0039,0.21485 0.04297,0.41797 0.125,0.61719 0.08594,0.19531 0.199218,0.37109 0.351562,0.51953 0.152344,0.15234 0.324219,0.26953 0.523438,0.35156 0.195312,0.082 0.398437,0.125 0.613281,0.125 h 4.777337 c 0.21485,0 0.42188,-0.0391 0.61719,-0.12109 0.19922,-0.082 0.3711,-0.19922 0.52344,-0.35156 0.15234,-0.15235 0.26953,-0.32422 0.35156,-0.52344 0.082,-0.19531 0.1211,-0.40234 0.1211,-0.61719 v -3.46484 c 1.26171,-0.33594 2.45703,-0.83594 3.58203,-1.49219 h 0.0742 l 2.38672,2.44922 c 0.15625,0.14844 0.33203,0.25781 0.53125,0.33594 0.19921,0.082 0.40234,0.12109 0.61718,0.12109 0.214854,0 0.417974,-0.0391 0.617194,-0.12109 0.19922,-0.0781 0.375,-0.1875 0.53125,-0.33594 l 3.39063,-3.39063 c 0.15234,-0.15234 0.26953,-0.32812 0.35546,-0.52734 0.082,-0.19922 0.125,-0.40625 0.125,-0.62109 0,-0.21485 -0.043,-0.42188 -0.125,-0.6211 -0.0859,-0.19922 -0.20312,-0.375 -0.35546,-0.52343 l -2.44922,-2.39063 c -0.0117,-0.0234 -0.0117,-0.0469 0,-0.0703 0.65625,-1.12891 1.15625,-2.32422 1.49218,-3.58594 h 3.46485 c 0.21484,0 0.42187,-0.0391 0.61719,-0.12109 0.19921,-0.082 0.37109,-0.19922 0.52343,-0.35157 0.15235,-0.14843 0.26953,-0.32421 0.35157,-0.52343 0.082,-0.19532 0.12109,-0.40235 0.12109,-0.61719 z m -26.914062,-9.65235 c 1.019531,-0.5664 2.09375,-0.99609 3.226562,-1.28906 0.347656,-0.0977 0.636719,-0.29297 0.855469,-0.58203 0.222656,-0.28906 0.335937,-0.61719 0.335937,-0.98438 v -3.50001 h 4.78125 v 3.45314 c 0,0.36719 0.10937,0.69531 0.33203,0.98437 0.22266,0.29297 0.50781,0.48438 0.85938,0.58203 1.13281,0.3086 2.20703,0.75391 3.22656,1.33594 0.3164,0.19141 0.66015,0.26172 1.02734,0.21485 0.36719,-0.0469 0.6836,-0.19922 0.94531,-0.46485 l 2.445324,-2.38672 3.39453,3.39063 v 0.0586 l -2.44922,2.39063 c -0.25781,0.26172 -0.41016,0.57422 -0.45703,0.9375 -0.0469,0.36328 0.0234,0.70312 0.20703,1.01953 0.58594,1.01953 1.03125,2.09375 1.33594,3.22656 0.10156,0.35156 0.29687,0.63672 0.58593,0.85547 0.28907,0.22266 0.61719,0.33594 0.98047,0.33984 h 3.46485 v 4.77735 h -3.46485 c -0.36328,0.004 -0.6914,0.11328 -0.98437,0.33593 -0.28906,0.22266 -0.48047,0.50782 -0.58203,0.85938 -0.30469,1.13281 -0.75,2.20703 -1.33594,3.22266 -0.1875,0.32031 -0.25391,0.66406 -0.20703,1.03125 0.0469,0.36328 0.19922,0.67968 0.45703,0.9414 l 2.44922,2.44922 v 0.0586 l -3.39453,3.39454 -2.445324,-2.44922 c -0.33203,-0.32813 -0.73046,-0.48438 -1.19531,-0.46485 -0.29297,0 -0.57031,0.0703 -0.82422,0.21485 -1.01562,0.58593 -2.09375,1.03125 -3.22656,1.33593 -0.35156,0.0977 -0.63672,0.29297 -0.85937,0.58204 -0.21875,0.28906 -0.33204,0.61718 -0.33594,0.98437 v 3.46094 h -4.777344 v -3.46094 c -0.0039,-0.36328 -0.117188,-0.6875 -0.339844,-0.97656 -0.21875,-0.28906 -0.503906,-0.48047 -0.855469,-0.57813 -1.136719,-0.3125 -2.214844,-0.76172 -3.234375,-1.34765 -0.257812,-0.14453 -0.53125,-0.21485 -0.824219,-0.21485 -0.46875,-0.0234 -0.867187,0.13282 -1.195312,0.46485 l -2.390625,2.44922 -3.390625,-3.23829 v -0.0586 l 2.386719,-2.44922 c 0.261718,-0.26172 0.414062,-0.57812 0.460937,-0.94531 0.04687,-0.36328 -0.02344,-0.70703 -0.207031,-1.02734 -0.550782,-1.02344 -0.964844,-2.09766 -1.242188,-3.22266 -0.09766,-0.35547 -0.292968,-0.64063 -0.582031,-0.86328 -0.289063,-0.22266 -0.617187,-0.33203 -0.984375,-0.33203 h -3.5 v -4.77735 h 3.453125 c 0.363281,-0.004 0.691406,-0.11718 0.980469,-0.33593 0.289062,-0.22266 0.484375,-0.50782 0.582031,-0.85938 0.308594,-1.13281 0.757813,-2.20703 1.339844,-3.22656 0.183593,-0.31641 0.253906,-0.65625 0.207031,-1.02344 -0.04687,-0.36328 -0.199219,-0.67578 -0.457031,-0.93359 l -2.390625,-2.39063 c 0,0 0,0 0,-0.0586 l 3.34375,-3.59766 h 0.0625 l 2.386718,2.39063 c 0.257813,0.26172 0.570313,0.41797 0.9375,0.46484 0.363282,0.0469 0.707032,-0.0273 1.023438,-0.21484 z m 0,0"
     fill-opacity="1"
     fill-rule="nonzero"
     id="path78"
     style="fill:#ffffff" />
  <path
     fill="#ffffff"
     d="m 80.823821,196.30799 c 0.08984,0.0156 0.179687,0.0156 0.273437,0 0.6875,-0.27344 1.386719,-0.50391 2.101563,-0.69532 0.113281,-0.0195 0.214843,-0.0586 0.3125,-0.125 0.09375,-0.0625 0.171874,-0.14453 0.230468,-0.24218 0.05859,-0.0937 0.09766,-0.19922 0.109375,-0.3125 0.01563,-0.11329 0.0039,-0.22657 -0.03125,-0.33594 -0.04687,-0.17188 -0.140625,-0.3125 -0.285156,-0.41797 -0.140625,-0.10938 -0.300781,-0.16406 -0.480469,-0.16797 h -0.203125 c -0.765625,0.20703 -1.515625,0.45313 -2.257812,0.74219 -0.171875,0.0703 -0.300781,0.1875 -0.390625,0.35156 -0.08984,0.16797 -0.117188,0.33984 -0.08203,0.52344 0.03516,0.18359 0.125,0.33594 0.265626,0.45703 0.144531,0.12109 0.308593,0.18359 0.496093,0.18359 z m 0,0"
     fill-opacity="1"
     fill-rule="nonzero"
     id="path70"
     style="fill:#ffffff" />
  <path
     fill="#ffffff"
     d="m 89.589446,221.10487 v -4.16796 h 6.29688 c 0.21875,0.004 0.40625,-0.0742 0.55859,-0.23047 0.15625,-0.15235 0.23047,-0.33985 0.23047,-0.5586 v -4.98047 c 0,-0.21875 -0.0742,-0.40625 -0.23047,-0.5625 -0.15234,-0.15625 -0.33984,-0.23046 -0.55859,-0.22656 h -7.08594 c -0.21484,0 -0.40234,0.0781 -0.55469,0.23047 -0.15625,0.15234 -0.23437,0.33984 -0.23437,0.55859 v 9.90235 c 0,0.21484 0.0781,0.40234 0.23437,0.55469 0.15235,0.15625 0.33985,0.23437 0.55469,0.23437 0.21875,0 0.40625,-0.0781 0.55859,-0.23437 0.15235,-0.15235 0.23047,-0.33985 0.23047,-0.55469 z m 5.51953,-9.11328 v 3.36719 c -5.07324,-0.14998 -5.51953,1.64061 -5.51953,-3.36719 z"
     fill-opacity="1"
     fill-rule="nonzero"
     id="path72"
     style="display:inline;fill:#ffffff"
     sodipodi:nodetypes="ccccssccscsscsccccccc" />
  <g
     clip-path="url(#ccb0e01b7d)"
     id="g76"
     style="fill:#ffffff"
     transform="translate(-210.04336,-4.7037347)">
    <path
       fill="#ffffff"
       d="m 298.84375,197.95312 c -0.42969,0 -0.87109,0 -1.30078,0 -0.21485,0.0117 -0.39453,0.0977 -0.53906,0.25782 -0.14454,0.16015 -0.21094,0.35156 -0.20313,0.5664 0.0156,0.20703 0.0977,0.38672 0.24609,0.53125 0.15235,0.14453 0.33594,0.21875 0.54297,0.21875 h 1.25391 c 0.69922,0.004 1.39453,0.0391 2.08984,0.10938 0.69141,0.0703 1.38282,0.17578 2.06641,0.3125 0.68359,0.13672 1.35937,0.30859 2.02344,0.51172 0.66797,0.20312 1.32422,0.4375 1.96875,0.70703 0.64453,0.26953 1.27343,0.5664 1.88672,0.89844 0.61718,0.32812 1.21093,0.6875 1.79296,1.07421 0.57813,0.39063 1.13672,0.80469 1.67579,1.2461 0.53906,0.44531 1.05468,0.91406 1.54687,1.40625 0.49609,0.49219 0.96094,1.00781 1.40625,1.55078 0.44141,0.53906 0.85547,1.09766 1.24219,1.67578 0.38672,0.58203 0.74609,1.17969 1.07422,1.79297 0.33203,0.61719 0.6289,1.24609 0.89453,1.89062 0.26953,0.64454 0.5039,1.30079 0.70703,1.96485 0.20312,0.66797 0.37109,1.34375 0.50781,2.02734 0.13672,0.6836 0.24219,1.375 0.3125,2.06641 0.0664,0.69531 0.10156,1.39062 0.10547,2.08984 0,0.40625 0,0.80469 0,1.19531 -0.0117,0.21485 0.0547,0.40235 0.19922,0.5625 0.14453,0.16016 0.32422,0.2461 0.53906,0.26172 0.20703,-0.004 0.38672,-0.0781 0.53516,-0.21875 0.14844,-0.14453 0.23047,-0.3164 0.24219,-0.52343 0,-0.42969 0,-0.85938 0,-1.30079 0,-0.75 -0.0391,-1.49609 -0.11329,-2.23828 -0.0742,-0.74218 -0.1875,-1.48047 -0.33203,-2.21484 -0.14843,-0.73438 -0.32812,-1.45703 -0.54687,-2.17188 -0.21875,-0.71484 -0.46875,-1.41796 -0.75781,-2.10937 -0.28516,-0.69141 -0.60547,-1.36328 -0.95704,-2.02344 -0.35156,-0.66015 -0.73437,-1.30078 -1.14843,-1.92187 -0.41797,-0.6211 -0.85938,-1.22266 -1.33594,-1.80078 -0.47266,-0.57813 -0.97266,-1.13282 -1.5,-1.66016 -0.52734,-0.53125 -1.08203,-1.03125 -1.66016,-1.50781 -0.57422,-0.47657 -1.17578,-0.92188 -1.79297,-1.33594 -0.62109,-0.41797 -1.26171,-0.80469 -1.92187,-1.15625 -0.65625,-0.35547 -1.33203,-0.67578 -2.01953,-0.96484 -0.69141,-0.28907 -1.39453,-0.54297 -2.10938,-0.76172 -0.71093,-0.21875 -1.4375,-0.40235 -2.16797,-0.55078 -0.73437,-0.14844 -1.47265,-0.26172 -2.21484,-0.33985 -0.74219,-0.0742 -1.48828,-0.11328 -2.23828,-0.11719 z m 0,0"
       fill-opacity="1"
       fill-rule="nonzero"
       id="path74"
       style="fill:#ffffff" />
  </g>
  <g
     clip-path="url(#75e5a809f3)"
     id="g82"
     style="fill:#ffffff"
     transform="translate(-210.04336,-4.7037347)">
    <path
       fill="#ffffff"
       d="m 300.09766,242.14844 c -0.40625,0 -0.80079,0 -1.19141,0 -0.69922,0 -1.39844,-0.0312 -2.09375,-0.10157 -0.69531,-0.0664 -1.38672,-0.16796 -2.07031,-0.30078 -0.6875,-0.13672 -1.36328,-0.30468 -2.03125,-0.50781 -0.66797,-0.20312 -1.32813,-0.4375 -1.97266,-0.70312 -0.64453,-0.26563 -1.27734,-0.5625 -1.89453,-0.89063 -0.61719,-0.32812 -1.21484,-0.6875 -1.79688,-1.07422 -0.58203,-0.38672 -1.14453,-0.80078 -1.68359,-1.24219 -0.54297,-0.44531 -1.05859,-0.91015 -1.55469,-1.40625 -0.49609,-0.49218 -0.96484,-1.00781 -1.41015,-1.54687 -0.44532,-0.53906 -0.85938,-1.09766 -1.25,-1.67969 -0.39063,-0.57812 -0.75,-1.17969 -1.08203,-1.79297 -0.32813,-0.61718 -0.62891,-1.24609 -0.89844,-1.89062 -0.26953,-0.64453 -0.50391,-1.30078 -0.71094,-1.96875 -0.20312,-0.66797 -0.375,-1.34766 -0.51172,-2.03125 -0.14062,-0.6836 -0.24219,-1.375 -0.3125,-2.07031 -0.0703,-0.69532 -0.10937,-1.39063 -0.10937,-2.08985 0,-0.40625 0,-0.8125 0,-1.19531 0.0156,-0.21875 -0.0469,-0.41016 -0.19532,-0.57422 -0.14453,-0.16406 -0.32812,-0.25391 -0.54687,-0.26172 -0.20703,0.004 -0.38672,0.0742 -0.53906,0.21875 -0.14844,0.14063 -0.23438,0.31641 -0.25,0.52344 0,0.42969 0,0.87109 0,1.30078 0.004,0.74609 0.0391,1.49609 0.11328,2.23828 0.0742,0.7461 0.1875,1.48438 0.33203,2.21875 0.14844,0.73438 0.33203,1.46094 0.54687,2.17578 0.21875,0.71485 0.47266,1.42188 0.75782,2.11328 0.28515,0.69141 0.60547,1.36719 0.96093,2.02344 0.35157,0.66016 0.73438,1.30469 1.15235,1.92578 0.41406,0.6211 0.85937,1.22266 1.33594,1.80078 0.47265,0.57813 0.97656,1.13282 1.5039,1.66407 0.52735,0.53125 1.08203,1.03125 1.66016,1.50781 0.57812,0.47656 1.17969,0.92187 1.80078,1.33984 0.62109,0.41407 1.26172,0.80078 1.92187,1.15235 0.66016,0.35547 1.33594,0.67578 2.02344,0.96484 0.69141,0.28906 1.39453,0.53906 2.11328,0.75781 0.71485,0.21875 1.4375,0.40235 2.17188,0.55078 0.73437,0.14844 1.47265,0.26172 2.21875,0.33594 0.74609,0.0742 1.49219,0.11328 2.23828,0.11719 0.44141,0 0.875,0 1.30469,0 0.19531,-0.0234 0.35937,-0.11328 0.49218,-0.26172 0.13282,-0.14844 0.19922,-0.32031 0.19922,-0.51953 0,-0.19922 -0.0664,-0.375 -0.19922,-0.52344 -0.13281,-0.14844 -0.29687,-0.23437 -0.49218,-0.26172 z m 0,0"
       fill-opacity="1"
       fill-rule="nonzero"
       id="path80"
       style="fill:#ffffff" />
  </g>
  <path
     fill="#ffffff"
     d="m 67.253508,211.16737 c 0.06641,0.0117 0.132813,0.0117 0.203125,0 0.179688,0 0.339844,-0.0547 0.480469,-0.16406 0.144531,-0.10938 0.238281,-0.25 0.28125,-0.42188 0.191406,-0.71484 0.417969,-1.41406 0.683593,-2.10156 0.08203,-0.20312 0.07813,-0.40234 -0.0078,-0.60156 -0.08984,-0.19922 -0.234375,-0.33594 -0.433594,-0.41406 -0.09375,-0.0391 -0.1875,-0.0586 -0.289062,-0.0625 -0.355469,0.004 -0.597656,0.17187 -0.726563,0.5039 -0.289062,0.74219 -0.535156,1.5 -0.742187,2.26953 -0.03516,0.10157 -0.04687,0.20703 -0.03906,0.3125 0.01172,0.10938 0.04297,0.21094 0.09375,0.30469 0.05469,0.0937 0.121094,0.17578 0.207031,0.23828 0.08594,0.0664 0.183594,0.10938 0.289063,0.13672 z m 0,0"
     fill-opacity="1"
     fill-rule="nonzero"
     id="path84"
     style="fill:#ffffff" />
  <path
     fill="#ffffff"
     d="m 74.874602,199.75721 c 0.183593,0 0.347656,-0.0586 0.488281,-0.17968 0.574219,-0.45313 1.195312,-0.89453 1.792969,-1.30078 0.183593,-0.11719 0.296875,-0.28125 0.34375,-0.49219 0.04687,-0.21486 0.01172,-0.41017 -0.105469,-0.59376 -0.15625,-0.24219 -0.378906,-0.36328 -0.667969,-0.35938 -0.15625,0 -0.300781,0.043 -0.429687,0.13282 -0.660156,0.42968 -1.304688,0.89454 -1.925782,1.39844 -0.167968,0.13672 -0.261718,0.3125 -0.28125,0.53125 -0.02344,0.21875 0.03516,0.41016 0.175782,0.57813 0.15625,0.1914 0.359375,0.28906 0.609375,0.28515 z m 0,0"
     fill-opacity="1"
     fill-rule="nonzero"
     id="path86"
     style="fill:#ffffff" />
  <path
     fill="#ffffff"
     d="m 69.843352,204.73768 c 0.132812,0.0899 0.273437,0.13282 0.429687,0.13282 0.28125,-0.004 0.5,-0.125 0.660156,-0.35938 0.398438,-0.62109 0.832032,-1.21875 1.300782,-1.78906 0.136718,-0.16797 0.199218,-0.36328 0.175781,-0.57813 -0.01953,-0.21875 -0.113281,-0.39453 -0.285156,-0.53515 -0.144531,-0.11719 -0.3125,-0.17578 -0.5,-0.17969 -0.25,0.004 -0.453125,0.10547 -0.609375,0.30078 -0.503906,0.61719 -0.972656,1.25781 -1.410156,1.92188 -0.117188,0.18359 -0.152344,0.38281 -0.105469,0.59375 0.04687,0.21093 0.164062,0.375 0.34375,0.49218 z m 0,0"
     fill-opacity="1"
     fill-rule="nonzero"
     id="path88"
     style="fill:#ffffff" />
  <path
     fill="#ffffff"
     d="m 84.765227,221.36659 c 0.05469,0.16016 0.148437,0.28516 0.285156,0.38281 0.136719,0.0977 0.289062,0.14453 0.453125,0.14453 0.08984,0.0117 0.175781,0.0117 0.265625,0 0.199219,-0.0781 0.347656,-0.21093 0.441406,-0.40625 0.08984,-0.19531 0.101563,-0.39453 0.03516,-0.59765 l -3.582031,-9.90235 c -0.05469,-0.16015 -0.152343,-0.28515 -0.289062,-0.38281 -0.132813,-0.0977 -0.285157,-0.14453 -0.453125,-0.14453 -0.167969,0 -0.320313,0.0469 -0.457032,0.14453 -0.132812,0.0977 -0.230468,0.22266 -0.285156,0.38281 l -3.582031,9.90235 c -0.07813,0.20312 -0.07031,0.40234 0.02344,0.59765 0.08984,0.19922 0.238282,0.33203 0.441407,0.40625 0.09375,0.0117 0.183593,0.0117 0.277343,0 0.164063,0 0.316407,-0.0508 0.453126,-0.14843 0.132812,-0.0937 0.230468,-0.22266 0.285156,-0.37891 l 0.933594,-2.62891 h 3.808593 z m -4.109375,-4.22656 1.300781,-3.58594 1.300781,3.58594 z m 0,0"
     fill-opacity="1"
     fill-rule="nonzero"
     id="path90"
     style="fill:#ffffff" />
  <path
     fill="#ffffff"
     d="m 99.194916,221.91737 c 0.21484,-0.004 0.39843,-0.082 0.55468,-0.23437 0.15235,-0.15235 0.23047,-0.33985 0.23438,-0.55469 v -9.96094 c 0,-0.21875 -0.0781,-0.40625 -0.23438,-0.55859 -0.15234,-0.15235 -0.33984,-0.23047 -0.55468,-0.23047 -0.21875,0 -0.40625,0.0781 -0.5586,0.23047 -0.15234,0.15234 -0.23047,0.33984 -0.23047,0.55859 v 9.90234 c -0.0156,0.22657 0.0586,0.42579 0.21094,0.58985 0.15625,0.16797 0.34766,0.2539 0.57813,0.25781 z m 0,0"
     fill-opacity="1"
     fill-rule="nonzero"
     id="path92"
     style="fill:#ffffff" />
  <path
     fill="#ffffff"
     d="m 241.33801,39.682761 v -4.16797 h 6.29688 c 0.21875,0.004 0.40625,-0.0742 0.55859,-0.23047 0.15625,-0.15234 0.23437,-0.33984 0.23047,-0.55859 v -4.98048 c 0.004,-0.21875 -0.0742,-0.40625 -0.23047,-0.5625 -0.15234,-0.15625 -0.33984,-0.23046 -0.55859,-0.22656 h -7.08594 c -0.21485,0 -0.40235,0.0781 -0.55469,0.23047 -0.15625,0.15234 -0.23047,0.33984 -0.23047,0.55859 v 9.90235 c 0,0.21485 0.0742,0.40235 0.23047,0.55469 0.15234,0.15625 0.33984,0.23437 0.55469,0.23437 0.21875,0 0.40625,-0.0781 0.55859,-0.23437 0.15625,-0.15234 0.23047,-0.33984 0.23047,-0.55469 z m 5.51953,-9.11329 v 3.36719 h -5.51953 v -3.36719 z m 0,0"
     fill-opacity="1"
     fill-rule="nonzero"
     id="path108"
     style="fill:#ffffff" />
  <path
     fill="#ffffff"
     d="m 81.434563,206.87247 c 0.21484,0 0.39844,-0.0742 0.55078,-0.22656 0.46875,-0.46094 0.97266,-0.8711 1.52344,-1.23438 0.54687,-0.35937 1.12109,-0.66406 1.73047,-0.91406 0.60547,-0.25 1.23047,-0.4375 1.875,-0.5625 0.644533,-0.12891 1.292973,-0.19141 1.949223,-0.19141 0.65625,0 1.30468,0.0625 1.94922,0.19141 0.64453,0.125 1.26953,0.3125 1.875,0.5625 0.60546,0.25 1.18359,0.55469 1.73046,0.91406 0.54688,0.36328 1.05469,0.77344 1.52344,1.23438 0.14844,0.15234 0.33203,0.23047 0.54688,0.22656 0.22265,-0.004 0.41015,-0.082 0.5625,-0.23828 0.15234,-0.15625 0.23047,-0.33984 0.23047,-0.55469 0,-0.21875 -0.0781,-0.40234 -0.23047,-0.55859 -0.53907,-0.52735 -1.125,-1.00391 -1.75782,-1.41797 -0.63281,-0.41797 -1.30078,-0.76953 -2,-1.05469 -0.70312,-0.28906 -1.42578,-0.5039 -2.16796,-0.64844 -0.74219,-0.14843 -1.49219,-0.21875 -2.25,-0.21875 -0.75782,0 -1.507823,0.0703 -2.250003,0.21875 -0.74219,0.14454 -1.46485,0.35938 -2.16797,0.64844 -0.69922,0.28516 -1.36719,0.63672 -2,1.05469 -0.63282,0.41406 -1.21875,0.89062 -1.75782,1.41797 -0.15625,0.15234 -0.23437,0.33984 -0.23437,0.55859 0,0.21485 -11.272942,-5.04797 -11.116672,-4.89563 0.14844,0.14844 11.675262,5.68079 11.886202,5.6886 z"
     fill-opacity="1"
     fill-rule="nonzero"
     id="path94"
     style="fill:#ffffff"
     sodipodi:nodetypes="cccccscscccssccccsccccscc" />
  <path
     fill="#ffffff"
     d="m 96.792566,235.98768 c -0.0937,-0.0156 -0.1914,-0.0156 -0.28515,0 -0.69141,0.26953 -1.39063,0.5 -2.10157,0.69141 -0.22265,0.0234 -0.40234,0.125 -0.54296,0.29687 -0.14063,0.17188 -0.19922,0.36719 -0.17579,0.58985 0.0234,0.21875 0.1211,0.39844 0.29297,0.53906 0.17188,0.14063 0.3711,0.19922 0.58985,0.17578 h 0.20312 c 0.76563,-0.21484 1.53125,-0.46484 2.26953,-0.73828 0.20313,-0.0859 0.34375,-0.22656 0.42969,-0.42578 0.0859,-0.19922 0.0898,-0.39844 0.0117,-0.60156 -0.11328,-0.32813 -0.34375,-0.50391 -0.69141,-0.52735 z m 0,0"
     fill-opacity="1"
     fill-rule="nonzero"
     id="path96"
     style="fill:#ffffff" />
  <path
     fill="#ffffff"
     d="m 107.76914,227.56581 c -0.12891,-0.0899 -0.26954,-0.13281 -0.42969,-0.12891 -0.28516,-0.008 -0.50391,0.11328 -0.65625,0.35547 -0.40625,0.60938 -0.84766,1.19531 -1.3125,1.79297 -0.20313,0.25781 -0.23438,0.53516 -0.0937,0.82812 0.14062,0.29688 0.375,0.44532 0.70312,0.44922 0.25,0 0.45703,-0.0976 0.6211,-0.28515 0.48828,-0.6211 0.96484,-1.26563 1.39453,-1.92188 0.12109,-0.18359 0.15625,-0.3789 0.11328,-0.59375 -0.0469,-0.21094 -0.15625,-0.375 -0.33984,-0.49609 z m 0,0"
     fill-opacity="1"
     fill-rule="nonzero"
     id="path98"
     style="fill:#ffffff" />
  <path
     fill="#ffffff"
     d="m 110.36289,221.1869 c -0.0703,-0.0117 -0.14454,-0.0117 -0.21485,0 -0.17578,0 -0.33594,0.0547 -0.47265,0.16016 -0.14063,0.10547 -0.23438,0.24609 -0.28125,0.41406 -0.19532,0.71484 -0.42579,1.42188 -0.69141,2.11328 -0.0781,0.20313 -0.0703,0.40625 0.0156,0.60156 0.0898,0.19922 0.23437,0.33594 0.4375,0.41407 0.0937,0.0195 0.18359,0.0195 0.27344,0 0.36328,0.004 0.60937,-0.16407 0.74218,-0.5 0.28907,-0.73828 0.53516,-1.49219 0.74219,-2.25782 0.0469,-0.20703 0.0195,-0.39843 -0.0859,-0.58203 -0.10547,-0.18359 -0.26172,-0.30468 -0.46484,-0.36328 z m 0,0"
     fill-opacity="1"
     fill-rule="nonzero"
     id="path100"
     style="fill:#ffffff" />
  <path
     fill="#ffffff"
     d="m 102.73007,232.53456 c -0.18359,0.004 -0.34765,0.0625 -0.48828,0.17969 -0.57812,0.46875 -1.17187,0.90625 -1.79297,1.3164 -0.17968,0.11719 -0.29297,0.28516 -0.33984,0.4961 -0.043,0.21093 -0.004,0.40625 0.11328,0.58984 0.15625,0.23047 0.375,0.34375 0.65625,0.34766 0.15625,0 0.29688,-0.0391 0.42969,-0.1211 0.65625,-0.42969 1.30078,-0.90625 1.92187,-1.41015 0.17188,-0.13282 0.26563,-0.3086 0.28907,-0.52344 0.0234,-0.21485 -0.0312,-0.40625 -0.16797,-0.57422 -0.16016,-0.19922 -0.36719,-0.29688 -0.6211,-0.30078 z m 0,0"
     fill-opacity="1"
     fill-rule="nonzero"
     id="path102"
     style="fill:#ffffff" />
  <path
     fill="#ffffff"
     d="m 236.51379,39.944481 c 0.0547,0.16015 0.14844,0.28515 0.28516,0.38281 0.13672,0.0977 0.28906,0.14453 0.45312,0.14453 0.0899,0.0117 0.17578,0.0117 0.26563,0 0.19922,-0.0781 0.34765,-0.21094 0.4414,-0.40625 0.0898,-0.19531 0.10547,-0.39453 0.0352,-0.59766 l -3.58203,-9.90234 c -0.0547,-0.16016 -0.14844,-0.28516 -0.28516,-0.38282 -0.13672,-0.0977 -0.28906,-0.14453 -0.45703,-0.14453 -0.16797,0 -0.32031,0.0469 -0.45312,0.14453 -0.13672,0.0977 -0.23438,0.22266 -0.28516,0.38282 l -3.58594,9.90234 c -0.0742,0.20313 -0.0664,0.40235 0.0234,0.59766 0.0898,0.19922 0.23828,0.33203 0.44141,0.40625 0.0937,0.0117 0.18359,0.0117 0.27734,0 0.16406,0 0.31641,-0.0508 0.45313,-0.14844 0.13671,-0.0937 0.23046,-0.22265 0.28515,-0.3789 l 0.9336,-2.62891 h 3.80859 z m -4.10937,-4.22657 1.30078,-3.58594 1.30469,3.58594 z m 0,0"
     fill-opacity="1"
     fill-rule="nonzero"
     id="path126"
     style="fill:#ffffff" />
  <path
     fill="#ffffff"
     d="m 250.94348,40.495261 c 0.21484,-0.004 0.40234,-0.082 0.55469,-0.23438 0.15234,-0.15234 0.23047,-0.33984 0.23437,-0.55468 v -9.96095 c 0,-0.21875 -0.0781,-0.40625 -0.23047,-0.55859 -0.15625,-0.15234 -0.33984,-0.23047 -0.55859,-0.23047 -0.21875,0 -0.40234,0.0781 -0.55859,0.23047 -0.15235,0.15234 -0.23047,0.33984 -0.23047,0.55859 v 9.90235 c -0.0117,0.22656 0.0586,0.42578 0.21484,0.58985 0.15234,0.16796 0.34375,0.2539 0.57422,0.25781 z m 0,0"
     fill-opacity="1"
     fill-rule="nonzero"
     id="path128"
     style="fill:#ffffff" />
  <path
     fill="#ffffff"
     d="m 96.433196,223.11268 c -0.21094,-0.004 -0.39453,0.0664 -0.54688,0.21485 -0.46875,0.46093 -0.97656,0.87109 -1.52343,1.23047 -0.54688,0.36328 -1.125,0.66796 -1.73047,0.91796 -0.60547,0.2461 -1.23047,0.4336 -1.875,0.5625 -0.64453,0.125 -1.29297,0.19141 -1.94922,0.19141 -0.65625,0 -1.304688,-0.0664 -1.949219,-0.19141 -0.644532,-0.1289 -1.269532,-0.3164 -1.875,-0.5625 -0.609375,-0.25 -1.183594,-0.55468 -1.730469,-0.91796 -0.550781,-0.35938 -1.054687,-0.76954 -1.523437,-1.23047 -0.15625,-0.14844 -0.335938,-0.22266 -0.550782,-0.22657 -0.21875,0 -0.40625,0.082 -0.558594,0.23829 -0.15625,0.15234 -0.234374,0.33593 -0.234374,0.55468 0,0.21875 0.07812,0.40235 0.234374,0.55469 0.539063,0.53125 1.125,1.00781 1.753907,1.42578 0.632812,0.41797 1.300781,0.77344 2,1.0586 0.703125,0.28906 1.425781,0.50781 2.167969,0.65234 0.746093,0.14844 1.496095,0.22266 2.253905,0.22266 0.75781,0 1.50781,-0.0742 2.25,-0.22266 0.74609,-0.14453 1.46875,-0.36328 2.16797,-0.65234 0.70312,-0.28516 1.36719,-0.64063 2,-1.0586 0.63281,-0.41797 1.21875,-0.89453 1.75781,-1.42578 0.25391,-0.24219 9.558424,6.56144 9.425614,6.23332 -0.12891,-0.32422 -9.613114,-7.57316 -9.964674,-7.56926 z"
     fill-opacity="1"
     fill-rule="nonzero"
     id="path104"
     style="fill:#ffffff"
     sodipodi:nodetypes="cccccsccccccsccccsccsccc" />
  <path
     fill="#ffffff"
     d="m 248.18567,41.690571 c -0.21485,-0.004 -0.39844,0.0664 -0.55078,0.21484 -0.46875,0.46094 -0.97657,0.8711 -1.52344,1.23047 -0.54688,0.36328 -1.125,0.66797 -1.73047,0.91797 -0.60547,0.2461 -1.23047,0.4336 -1.875,0.5625 -0.64453,0.125 -1.29297,0.19141 -1.94922,0.19141 -0.65625,0 -1.30469,-0.0664 -1.94922,-0.19141 -0.64453,-0.1289 -1.26953,-0.3164 -1.875,-0.5625 -0.60547,-0.25 -1.18359,-0.55469 -1.73047,-0.91797 -0.54687,-0.35937 -1.05468,-0.76953 -1.52343,-1.23047 -0.15235,-0.14843 -0.33594,-0.22265 -0.54688,-0.22656 -0.22266,0 -0.41016,0.082 -0.5625,0.23828 -0.15625,0.15235 -0.23437,0.33594 -0.23437,0.55469 0,0.21875 0.0781,0.40234 0.23437,0.55469 0.53906,0.53125 1.125,1.00781 1.75781,1.42578 0.62891,0.41797 1.29688,0.77344 2,1.05859 0.69922,0.28907 1.42188,0.50782 2.16407,0.65235 0.74609,0.14843 1.49609,0.22265 2.2539,0.22265 0.75781,0 1.50781,-0.0742 2.25391,-0.22265 0.74219,-0.14453 1.46484,-0.36328 2.16406,-0.65235 0.70313,-0.28515 1.37109,-0.64062 2,-1.05859 0.63281,-0.41797 1.21875,-0.89453 1.75781,-1.42578 0.25391,-0.24219 9.45284,2.65747 9.32003,2.32935 -0.12891,-0.32422 -9.50753,-3.6692 -9.85518,-3.66529 z"
     fill-opacity="1"
     fill-rule="nonzero"
     id="path142"
     style="fill:#ffffff"
     sodipodi:nodetypes="cccccsccccccsccccscccccc" />
</svg>
